# xmcd
#
# Track frame offsets:
#	150
#	9712
#	21170
#	34002
#	44187
#	56110
#	67000
#	77172
#	89832
#	101542
#	111927
#	122360
#	133122
#	145345
#	155022
#	167400
#	177775
#	190297
#	202287
#	213455
#	232055
#	244575
#
# Disc length: 3426 seconds
#
# Revision: 0
# Processed by: cddbd v1.5.2PL0 Copyright (c) Steve Scherf et al.
# Submitted via: audiograbber 1.83.01
#
DISCID=4b0d6016
DTITLE=Various Artist - Country 1.
DYEAR=1998
DGENRE=Classic Rock
TTITLE0=Johnny Cash - Rock Island line
TTITLE1=Jordanaires - Ribbon of darkness
TTITLE2=George Jones - I love you because
TTITLE3=Dave Dudley - Oh lonesome me
TTITLE4=Jerry Wallace - There she goes
TTITLE5=Patsy Cline - Stop the world
TTITLE6=Floyd Tillman - Slippin' around
TTITLE7=Sandford - They call me country
TTITLE8=Roger Miller - Little green apples
TTITLE9=Dave Dudley - Seven lonely days
TTITLE10=Jerry Lee Lewis - Will the circle be unbroken
TTITLE11=Hank Locklin - Crazy over you
TTITLE12=Glem Campbell - It's only make believe
TTITLE13=Benny Barnes - Poor man's riches
TTITLE14=Red Simpson - Rock truck roll
TTITLE15=Johnny Cash - Lonesome whistle
TTITLE16=Glen Campbell - Heartache number three
TTITLE17=Diana Trask - It's a man's world
TTITLE18=Buck Owens - Above and beyond
TTITLE19=Roy Clark - Mary and regrets
TTITLE20=Tommy Overstreet - I'll never break these chains
TTITLE21=Bobby Bare - Music city USA
EXTD=
EXTT0=
EXTT1=
EXTT2=
EXTT3=
EXTT4=
EXTT5=
EXTT6=
EXTT7=
EXTT8=
EXTT9=
EXTT10=
EXTT11=
EXTT12=
EXTT13=
EXTT14=
EXTT15=
EXTT16=
EXTT17=
EXTT18=
EXTT19=
EXTT20=
EXTT21=
PLAYORDER=
